<svg width="1160" height="232" viewBox="0 0 1160 232" fill="none" xmlns="http://www.w3.org/2000/svg">
<circle cx="10" cy="115" r="10" fill="#FCDC8F"/>
<path d="M15 110.372C227.811 -24.8974 892.407 252.154 1151 110.372" stroke="#FCDC8F" stroke-width="5"/>
<circle cx="1150" cy="109" r="10" fill="#FCDC8F"/>
<line x1="85.5" y1="82.0286" x2="85.5" y2="12" stroke="#FCDC8F" stroke-width="5"/>
<circle cx="86" cy="10" r="10" fill="#FCDC8F"/>
<line x1="230.5" y1="142.029" x2="230.5" y2="72" stroke="#FCDC8F" stroke-width="5"/>
<circle cx="231" cy="151" r="10" fill="#FCDC8F"/>
<line x1="419.5" y1="90.0286" x2="419.5" y2="20" stroke="#FCDC8F" stroke-width="5"/>
<circle cx="420" cy="19" r="10" fill="#FCDC8F"/>
<line x1="580.5" y1="187.029" x2="580.5" y2="117" stroke="#FCDC8F" stroke-width="5"/>
<circle cx="581" cy="188" r="10" fill="#FCDC8F"/>
<line x1="774.5" y1="142.029" x2="774.5" y2="72" stroke="#FCDC8F" stroke-width="5"/>
<circle cx="775" cy="69" r="10" fill="#FCDC8F"/>
<line x1="914.5" y1="222.029" x2="914.5" y2="152" stroke="#FCDC8F" stroke-width="5"/>
<circle cx="915" cy="222" r="10" fill="#FCDC8F"/>
<line x1="1086.5" y1="133.029" x2="1086.5" y2="63" stroke="#FCDC8F" stroke-width="5"/>
<circle cx="1087" cy="59" r="10" fill="#FCDC8F"/>
</svg>
